<svg xmlns="http://www.w3.org/2000/svg" version="1.1" xmlns:xlink="http://www.w3.org/1999/xlink" xmlns:svgjs="http://svgjs.com/svgjs" width="1440" height="3000" preserveAspectRatio="none" viewBox="0 0 1440 3000"><g mask="url(&quot;#SvgjsMask1068&quot;)" fill="none"><rect width="1440" height="3000" x="0" y="0" fill="rgba(49, 57, 124, 1)"></rect><path d="M843 713L240 110" stroke-width="6" stroke="url(#SvgjsLinearGradient1069)" stroke-linecap="round" class="TopLeft"></path><path d="M941 1778L1416 2253" stroke-width="6" stroke="url(#SvgjsLinearGradient1070)" stroke-linecap="round" class="BottomRight"></path><path d="M1420 1561L683 824" stroke-width="6" stroke="url(#SvgjsLinearGradient1069)" stroke-linecap="round" class="TopLeft"></path><path d="M1081 261L1869 1049" stroke-width="6" stroke="url(#SvgjsLinearGradient1070)" stroke-linecap="round" class="BottomRight"></path><path d="M775 1428L1808 2461" stroke-width="10" stroke="url(#SvgjsLinearGradient1069)" stroke-linecap="round" class="TopLeft"></path><path d="M1104 618L316 -170" stroke-width="6" stroke="url(#SvgjsLinearGradient1069)" stroke-linecap="round" class="TopLeft"></path><path d="M1380 2922L1940 3482" stroke-width="8" stroke="url(#SvgjsLinearGradient1069)" stroke-linecap="round" class="TopLeft"></path><path d="M903 694L1797 1588" stroke-width="6" stroke="url(#SvgjsLinearGradient1070)" stroke-linecap="round" class="BottomRight"></path><path d="M1235 1368L449 582" stroke-width="10" stroke="url(#SvgjsLinearGradient1070)" stroke-linecap="round" class="BottomRight"></path><path d="M740 2804L1602 3666" stroke-width="8" stroke="url(#SvgjsLinearGradient1069)" stroke-linecap="round" class="TopLeft"></path><path d="M1400 724L2099 1423" stroke-width="8" stroke="url(#SvgjsLinearGradient1070)" stroke-linecap="round" class="BottomRight"></path><path d="M378 936L16 574" stroke-width="10" stroke="url(#SvgjsLinearGradient1070)" stroke-linecap="round" class="BottomRight"></path><path d="M587 2525L-275 1663" stroke-width="8" stroke="url(#SvgjsLinearGradient1070)" stroke-linecap="round" class="BottomRight"></path><path d="M1396 241L2022 867" stroke-width="10" stroke="url(#SvgjsLinearGradient1069)" stroke-linecap="round" class="TopLeft"></path><path d="M1217 87L1903 773" stroke-width="6" stroke="url(#SvgjsLinearGradient1070)" stroke-linecap="round" class="BottomRight"></path><path d="M138 610L769 1241" stroke-width="6" stroke="url(#SvgjsLinearGradient1069)" stroke-linecap="round" class="TopLeft"></path><path d="M1072 1862L80 870" stroke-width="10" stroke="url(#SvgjsLinearGradient1070)" stroke-linecap="round" class="BottomRight"></path><path d="M1011 1266L100 355" stroke-width="8" stroke="url(#SvgjsLinearGradient1070)" stroke-linecap="round" class="BottomRight"></path><path d="M1401 2167L930 1696" stroke-width="6" stroke="url(#SvgjsLinearGradient1070)" stroke-linecap="round" class="BottomRight"></path><path d="M196 1496L1099 2399" stroke-width="6" stroke="url(#SvgjsLinearGradient1069)" stroke-linecap="round" class="TopLeft"></path><path d="M1238 2290L560 1612" stroke-width="8" stroke="url(#SvgjsLinearGradient1069)" stroke-linecap="round" class="TopLeft"></path><path d="M1135 628L2179 1672" stroke-width="8" stroke="url(#SvgjsLinearGradient1070)" stroke-linecap="round" class="BottomRight"></path><path d="M1360 2044L470 1154" stroke-width="8" stroke="url(#SvgjsLinearGradient1070)" stroke-linecap="round" class="BottomRight"></path><path d="M384 2042L878 2536" stroke-width="6" stroke="url(#SvgjsLinearGradient1069)" stroke-linecap="round" class="TopLeft"></path><path d="M377 2040L-666 997" stroke-width="6" stroke="url(#SvgjsLinearGradient1070)" stroke-linecap="round" class="BottomRight"></path><path d="M1434 2639L969 2174" stroke-width="6" stroke="url(#SvgjsLinearGradient1070)" stroke-linecap="round" class="BottomRight"></path><path d="M906 1729L190 1013" stroke-width="6" stroke="url(#SvgjsLinearGradient1070)" stroke-linecap="round" class="BottomRight"></path><path d="M250 2644L860 3254" stroke-width="8" stroke="url(#SvgjsLinearGradient1070)" stroke-linecap="round" class="BottomRight"></path><path d="M548 1021L1579 2052" stroke-width="10" stroke="url(#SvgjsLinearGradient1070)" stroke-linecap="round" class="BottomRight"></path><path d="M911 645L-71 -337" stroke-width="6" stroke="url(#SvgjsLinearGradient1069)" stroke-linecap="round" class="TopLeft"></path><path d="M657 704L-243 -196" stroke-width="10" stroke="url(#SvgjsLinearGradient1070)" stroke-linecap="round" class="BottomRight"></path><path d="M1427 2412L2234 3219" stroke-width="10" stroke="url(#SvgjsLinearGradient1070)" stroke-linecap="round" class="BottomRight"></path><path d="M305 2940L882 3517" stroke-width="8" stroke="url(#SvgjsLinearGradient1069)" stroke-linecap="round" class="TopLeft"></path><path d="M1065 542L3 -520" stroke-width="6" stroke="url(#SvgjsLinearGradient1069)" stroke-linecap="round" class="TopLeft"></path><path d="M1134 1899L1927 2692" stroke-width="10" stroke="url(#SvgjsLinearGradient1069)" stroke-linecap="round" class="TopLeft"></path><path d="M483 315L-329 -497" stroke-width="6" stroke="url(#SvgjsLinearGradient1069)" stroke-linecap="round" class="TopLeft"></path><path d="M229 806L1108 1685" stroke-width="8" stroke="url(#SvgjsLinearGradient1069)" stroke-linecap="round" class="TopLeft"></path><path d="M981 1399L-77 341" stroke-width="8" stroke="url(#SvgjsLinearGradient1070)" stroke-linecap="round" class="BottomRight"></path><path d="M589 157L-77 -509" stroke-width="8" stroke="url(#SvgjsLinearGradient1069)" stroke-linecap="round" class="TopLeft"></path><path d="M862 923L-9 52" stroke-width="10" stroke="url(#SvgjsLinearGradient1069)" stroke-linecap="round" class="TopLeft"></path><path d="M555 992L172 609" stroke-width="10" stroke="url(#SvgjsLinearGradient1070)" stroke-linecap="round" class="BottomRight"></path><path d="M1193 2986L290 2083" stroke-width="8" stroke="url(#SvgjsLinearGradient1070)" stroke-linecap="round" class="BottomRight"></path><path d="M314 1109L-398 397" stroke-width="10" stroke="url(#SvgjsLinearGradient1070)" stroke-linecap="round" class="BottomRight"></path><path d="M55 412L-518 -161" stroke-width="8" stroke="url(#SvgjsLinearGradient1070)" stroke-linecap="round" class="BottomRight"></path><path d="M1090 10L630 -450" stroke-width="10" stroke="url(#SvgjsLinearGradient1069)" stroke-linecap="round" class="TopLeft"></path><path d="M334 86L-70 -318" stroke-width="8" stroke="url(#SvgjsLinearGradient1070)" stroke-linecap="round" class="BottomRight"></path><path d="M545 2150L1416 3021" stroke-width="10" stroke="url(#SvgjsLinearGradient1069)" stroke-linecap="round" class="TopLeft"></path><path d="M1104 2346L1479 2721" stroke-width="8" stroke="url(#SvgjsLinearGradient1070)" stroke-linecap="round" class="BottomRight"></path><path d="M1139 979L291 131" stroke-width="6" stroke="url(#SvgjsLinearGradient1070)" stroke-linecap="round" class="BottomRight"></path><path d="M887 1968L1513 2594" stroke-width="8" stroke="url(#SvgjsLinearGradient1070)" stroke-linecap="round" class="BottomRight"></path><path d="M327 2132L987 2792" stroke-width="6" stroke="url(#SvgjsLinearGradient1069)" stroke-linecap="round" class="TopLeft"></path><path d="M25 1932L1052 2959" stroke-width="10" stroke="url(#SvgjsLinearGradient1069)" stroke-linecap="round" class="TopLeft"></path><path d="M945 76L51 -818" stroke-width="10" stroke="url(#SvgjsLinearGradient1070)" stroke-linecap="round" class="BottomRight"></path><path d="M813 2994L107 2288" stroke-width="8" stroke="url(#SvgjsLinearGradient1069)" stroke-linecap="round" class="TopLeft"></path><path d="M480 2933L1165 3618" stroke-width="10" stroke="url(#SvgjsLinearGradient1070)" stroke-linecap="round" class="BottomRight"></path><path d="M1188 2999L1662 3473" stroke-width="8" stroke="url(#SvgjsLinearGradient1070)" stroke-linecap="round" class="BottomRight"></path><path d="M840 1384L1586 2130" stroke-width="8" stroke="url(#SvgjsLinearGradient1070)" stroke-linecap="round" class="BottomRight"></path><path d="M1106 2247L1672 2813" stroke-width="10" stroke="url(#SvgjsLinearGradient1069)" stroke-linecap="round" class="TopLeft"></path><path d="M477 2891L1258 3672" stroke-width="6" stroke="url(#SvgjsLinearGradient1070)" stroke-linecap="round" class="BottomRight"></path><path d="M519 291L1242 1014" stroke-width="6" stroke="url(#SvgjsLinearGradient1070)" stroke-linecap="round" class="BottomRight"></path><path d="M591 2969L-474 1904" stroke-width="6" stroke="url(#SvgjsLinearGradient1069)" stroke-linecap="round" class="TopLeft"></path><path d="M794 477L1436 1119" stroke-width="10" stroke="url(#SvgjsLinearGradient1070)" stroke-linecap="round" class="BottomRight"></path><path d="M852 2722L1420 3290" stroke-width="6" stroke="url(#SvgjsLinearGradient1069)" stroke-linecap="round" class="TopLeft"></path><path d="M90 690L-340 260" stroke-width="8" stroke="url(#SvgjsLinearGradient1069)" stroke-linecap="round" class="TopLeft"></path><path d="M1013 2328L1999 3314" stroke-width="10" stroke="url(#SvgjsLinearGradient1070)" stroke-linecap="round" class="BottomRight"></path><path d="M716 641L-331 -406" stroke-width="10" stroke="url(#SvgjsLinearGradient1069)" stroke-linecap="round" class="TopLeft"></path><path d="M989 1603L1360 1974" stroke-width="8" stroke="url(#SvgjsLinearGradient1069)" stroke-linecap="round" class="TopLeft"></path><path d="M1378 1102L690 414" stroke-width="6" stroke="url(#SvgjsLinearGradient1069)" stroke-linecap="round" class="TopLeft"></path><path d="M1245 2294L2111 3160" stroke-width="6" stroke="url(#SvgjsLinearGradient1070)" stroke-linecap="round" class="BottomRight"></path><path d="M65 2964L-396 2503" stroke-width="10" stroke="url(#SvgjsLinearGradient1070)" stroke-linecap="round" class="BottomRight"></path><path d="M993 2911L1783 3701" stroke-width="10" stroke="url(#SvgjsLinearGradient1070)" stroke-linecap="round" class="BottomRight"></path><path d="M923 2591L147 1815" stroke-width="8" stroke="url(#SvgjsLinearGradient1070)" stroke-linecap="round" class="BottomRight"></path><path d="M710 1088L1589 1967" stroke-width="8" stroke="url(#SvgjsLinearGradient1070)" stroke-linecap="round" class="BottomRight"></path><path d="M480 654L-558 -384" stroke-width="8" stroke="url(#SvgjsLinearGradient1070)" stroke-linecap="round" class="BottomRight"></path><path d="M1248 145L2106 1003" stroke-width="10" stroke="url(#SvgjsLinearGradient1070)" stroke-linecap="round" class="BottomRight"></path><path d="M902 778L244 120" stroke-width="8" stroke="url(#SvgjsLinearGradient1070)" stroke-linecap="round" class="BottomRight"></path><path d="M288 1868L-559 1021" stroke-width="8" stroke="url(#SvgjsLinearGradient1069)" stroke-linecap="round" class="TopLeft"></path><path d="M148 445L-854 -557" stroke-width="6" stroke="url(#SvgjsLinearGradient1069)" stroke-linecap="round" class="TopLeft"></path><path d="M138 2993L-249 2606" stroke-width="8" stroke="url(#SvgjsLinearGradient1070)" stroke-linecap="round" class="BottomRight"></path><path d="M1397 2219L2422 3244" stroke-width="6" stroke="url(#SvgjsLinearGradient1069)" stroke-linecap="round" class="TopLeft"></path><path d="M1426 2952L734 2260" stroke-width="8" stroke="url(#SvgjsLinearGradient1070)" stroke-linecap="round" class="BottomRight"></path><path d="M1180 2430L130 1380" stroke-width="6" stroke="url(#SvgjsLinearGradient1069)" stroke-linecap="round" class="TopLeft"></path><path d="M70 1962L867 2759" stroke-width="6" stroke="url(#SvgjsLinearGradient1069)" stroke-linecap="round" class="TopLeft"></path><path d="M128 621L-370 123" stroke-width="8" stroke="url(#SvgjsLinearGradient1070)" stroke-linecap="round" class="BottomRight"></path></g><defs><mask id="SvgjsMask1068"><rect width="1440" height="3000" fill="#ffffff"></rect></mask><linearGradient x1="100%" y1="100%" x2="0%" y2="0%" id="SvgjsLinearGradient1069"><stop stop-color="rgba(77, 112, 159, 0)" offset="0"></stop><stop stop-color="rgba(77, 112, 159, 1)" offset="1"></stop></linearGradient><linearGradient x1="0%" y1="0%" x2="100%" y2="100%" id="SvgjsLinearGradient1070"><stop stop-color="rgba(77, 112, 159, 0)" offset="0"></stop><stop stop-color="rgba(77, 112, 159, 1)" offset="1"></stop></linearGradient></defs></svg>