<svg xmlns="http://www.w3.org/2000/svg" version="1.1" xmlns:xlink="http://www.w3.org/1999/xlink" xmlns:svgjs="http://svgjs.com/svgjs" width="1920" height="1080" preserveAspectRatio="none" viewBox="0 0 1920 1080"><g mask="url(&quot;#SvgjsMask1022&quot;)" fill="none"><rect width="1920" height="1080" x="0" y="0" fill="#0e2a47"></rect><path d="M810 225C783.96 244.69 762.57 241.92 762.57 270C762.57 329.42 757.45 366.48 810 400C916.16 467.73 943.08 461.9 1080 472.5C1213.08 482.81 1235.3 417.92 1350 441.82C1397.3 451.67 1360.94 507.94 1404 540C1495.94 608.46 1520.21 642.86 1620 642.86C1682.21 642.86 1726.35 603.7 1728 540C1731.17 417.27 1678.74 405.03 1629.64 270C1624.74 256.53 1633.41 244.81 1620 243C1493.59 225.91 1470.09 279.57 1350 232.2C1200.09 173.07 1215.86 31.81 1080 30C945.86 28.21 942.67 124.69 810 225" stroke="rgba(51, 121, 194, 0.58)" stroke-width="2"></path><path d="M2160 456.92C2147.71 506.08 2092.5 502.29 2092.5 540C2092.5 570.17 2150.46 554.52 2160 592.68C2184.21 689.52 2160 701.34 2160 810C2160 945 2227.5 1012.5 2160 1080C2092.5 1147.5 2025 1080 1890 1080C1755 1080 1755 1080 1620 1080C1485 1080 1485 1080 1350 1080C1337.72 1080 1327.45 1091.21 1325.45 1080C1303.35 956.21 1360.16 921.84 1301.79 810C1237.43 686.68 1197.65 613.99 1080 609.68C951.75 604.99 940.91 697.5 810 792C802.16 797.66 802.5 801.13 802.5 810C802.5 817.63 805.4 818 810 825C894.15 953 980 997.99 980 1080C980 1125.49 895 1080 810 1080C675 1080 675 1080 540 1080C405 1080 405 1080 270 1080C135 1080 67.5 1147.5 0 1080C-67.5 1012.5 0 945 0 810C0 675 0 675 0 540C0 405 0 405 0 270C0 135 -67.5 67.5 0 0C67.5 -67.5 135 0 270 0C405 0 405 0 540 0C675 0 675 0 810 0C945 0 945 0 1080 0C1215 0 1215 0 1350 0C1485 0 1485 0 1620 0C1755 0 1755 0 1890 0C2025 0 2092.5 -67.5 2160 0C2227.5 67.5 2160 135 2160 270C2160 363.46 2181.46 371.08 2160 456.92" stroke="rgba(51, 121, 194, 0.58)" stroke-width="2"></path><path d="M244.69 0C259.38 0.86 257.76 15.88 270 15.88C280.54 15.88 277.64 0.74 290.25 0C412.64 -7.2 415.13 0 540 0C675 0 675 0 810 0C897.1 0 984.19 -30.4 984.19 0C984.19 38.83 894.15 65.84 810 138.46C737.73 200.84 728.36 194.49 671.35 270C593.36 373.29 616.01 392.85 540 496.05C516.58 527.85 472.5 510.34 472.5 540C472.5 587.9 509.69 593.74 540 651.18C580.94 728.74 615 736.27 615 810C615 856.59 579.36 891.82 540 891.82C496.86 891.82 497.64 847.68 450 810C362.64 740.91 365.34 735.49 270 678.29C140.34 600.49 135 609.14 0 540C0 540 0 540 0 540C0 405 0 405 0 270C0 135 -64.18 70.82 0 0C58.16 -64.18 124.38 -7.08 244.69 0" stroke="rgba(51, 121, 194, 0.58)" stroke-width="2"></path><path d="M1350 97.2C1284.1 97.2 1228.5 27.29 1228.5 0C1228.5 -21.31 1289.25 0 1350 0C1447.2 0 1544.4 -22.95 1544.4 0C1544.4 25.65 1442.05 97.2 1350 97.2" stroke="rgba(51, 121, 194, 0.58)" stroke-width="2"></path><path d="M1750.18 270C1750.18 180.83 1817.59 186.13 1890 106.88C1940.94 51.13 1931.95 25.7 1996.88 0C2066.95 -27.74 2125.05 -46.61 2160 0C2206.61 62.14 2179.57 116.86 2160 217.5C2153.32 251.86 2131.71 241.89 2107.5 270C1996.71 398.64 1985.46 531 1890 531C1806.8 531 1750.18 392.89 1750.18 270" stroke="rgba(51, 121, 194, 0.58)" stroke-width="2"></path><path d="M1607.14 810C1607.9 803.03 1614.55 808.25 1620 803.57C1755.98 686.75 1749.39 579.04 1890 567C2019.39 555.92 2043.57 652.53 2160 757.32C2178.57 774.03 2160 783.66 2160 810C2160 945 2227.5 1012.5 2160 1080C2092.5 1147.5 2025 1080 1890 1080C1755 1080 1755 1080 1620 1080C1605 1080 1590.64 1093.48 1590 1080C1584.21 958.48 1592.9 941.24 1607.14 810" stroke="rgba(51, 121, 194, 0.58)" stroke-width="2"></path><path d="M0 995.63C41.51 995.63 128.57 1057.02 128.57 1080C128.57 1099.21 38.81 1105.47 0 1080C-25.47 1063.29 -22.77 995.63 0 995.63" stroke="rgba(51, 121, 194, 0.58)" stroke-width="2"></path><path d="M11.25 270C11.25 190.44 148.33 221.61 270 148.24C372.2 86.61 358.04 55.43 459 0C493.04 -18.69 499.5 0 540 0C675 0 675 0 810 0C842.66 0 875.32 -11.4 875.32 0C875.32 14.56 840.77 23.78 810 51.92C693.18 158.78 687.96 155.34 580.14 270C552.96 298.91 571.43 315.77 540 339.07C416.36 430.77 395.81 516.43 270 500C131.43 481.9 11.25 366.32 11.25 270" stroke="rgba(51, 121, 194, 0.58)" stroke-width="2"></path><path d="M33.75 0C33.75 93.56 8.49 216 0 216C-8.39 216 -14.59 93.41 0 0C2.28 -14.59 33.75 -14.44 33.75 0" stroke="rgba(51, 121, 194, 0.58)" stroke-width="2"></path><path d="M1870.71 270C1870.71 257.7 1879.12 247.5 1890 247.5C1903.77 247.5 1920 257 1920 270C1920 286.25 1903.17 306 1890 306C1878.52 306 1870.71 286.95 1870.71 270" stroke="rgba(51, 121, 194, 0.58)" stroke-width="2"></path><path d="M2160 30C2153.75 30 2137.5 9.38 2137.5 0C2137.5 -5.63 2155.18 -6.43 2160 0C2166.43 8.57 2165 30 2160 30" stroke="rgba(51, 121, 194, 0.58)" stroke-width="2"></path><path d="M1768.5 1080C1768.5 1036.62 1819.49 937.06 1890 937.06C1985.89 937.06 2101.3 1040.91 2101.3 1080C2101.3 1112.38 1995.65 1080 1890 1080C1829.25 1080 1768.5 1108.09 1768.5 1080" stroke="rgba(51, 121, 194, 0.58)" stroke-width="2"></path></g><defs><mask id="SvgjsMask1022"><rect width="1920" height="1080" fill="#ffffff"></rect></mask></defs></svg>