<svg xmlns="http://www.w3.org/2000/svg" version="1.1" xmlns:xlink="http://www.w3.org/1999/xlink" xmlns:svgjs="http://svgjs.com/svgjs" width="1920" height="1080" preserveAspectRatio="none" viewBox="0 0 1920 1080"><g mask="url(&quot;#SvgjsMask1019&quot;)" fill="none"><rect width="1920" height="1080" x="0" y="0" fill="#0e2a47"></rect><path d="M0 55.86C78.72 31.26 155.35 201.43 270 185.62C357.85 173.5 320 58.44 405 0C455 -34.37 472.5 0 540 0C675 0 675 0 810 0C945 0 945 0 1080 0C1215 0 1215 0 1350 0C1416.18 0 1456.27 -44.26 1482.35 0C1535.82 90.74 1465.35 149.54 1509.11 270C1534.18 339.02 1558.72 378.95 1620 378.95C1700.42 378.95 1763.61 351.11 1792.5 270C1831.11 161.63 1722.4 90.29 1755 0C1771.15 -44.71 1822.5 0 1890 0C2025 0 2092.5 -67.5 2160 0C2227.5 67.5 2160 135 2160 270C2160 405 2160 405 2160 540C2160 675 2160 675 2160 810C2160 837 2164.42 837.46 2160 864C2141.92 972.46 2181.84 1026.53 2115 1080C2046.84 1134.53 2002.5 1080 1890 1080C1755 1080 1755 1080 1620 1080C1485 1080 1485 1080 1350 1080C1215 1080 1215 1080 1080 1080C945 1080 945 1080 810 1080C675 1080 675 1080 540 1080C429 1080 423.69 1095.1 318 1080C288.69 1075.81 295.94 1057.95 270 1041.43C136.94 956.7 111.23 972.84 0 877.5C-23.77 857.13 0 843.75 0 810C0 675 0 675 0 540C0 405 0 405 0 270C0 162.93 -56.28 73.45 0 55.86" stroke="rgba(51, 121, 194, 0.58)" stroke-width="2"></path><path d="M810 263.72C805.36 263.72 799.62 267.26 799.62 270C799.62 272.54 805.14 274.29 810 274.29C812.88 274.29 815.09 272.39 815.09 270C815.09 267.1 813.09 263.72 810 263.72" stroke="rgba(51, 121, 194, 0.58)" stroke-width="2"></path><path d="M1890 405C1852.96 405 1864.02 481.15 1815.32 540C1729.02 644.27 1737.03 681.21 1620 731.25C1504.37 780.69 1483.33 752.18 1350 738.95C1213.33 725.38 1202.92 657.37 1080 677.65C987.57 692.9 919.29 745.99 919.29 810C919.29 871.38 989.13 912.6 1080 928.42C1204.48 950.1 1214.58 903.68 1350 885C1484.58 866.44 1484.93 854.59 1620 853.95C1754.93 853.31 1757.46 893.92 1890 882.44C2011.26 871.94 2111.51 885.34 2127.6 810C2148.08 714.12 2043.1 676.3 1963.13 540C1924.3 473.8 1926.86 405 1890 405" stroke="rgba(51, 121, 194, 0.58)" stroke-width="2"></path><path d="M0 133.45C58.28 133.45 96.45 197.46 185.63 270C231.45 307.27 217.67 353.08 270 353.08C394.85 353.08 407.25 263.03 540 270C677.25 277.21 683.65 381.43 810 381.43C884.87 381.43 942.45 332.02 942.45 270C942.45 194.67 885.07 179 810 106.74C744.82 44 661.94 29.47 661.94 0C661.94 -23.9 735.97 0 810 0C945 0 945 0 1080 0C1215 0 1215 0 1350 0C1350 0 1350 0 1350 0C1369.28 135 1326.91 156.42 1388.57 270C1461.91 405.11 1502.67 385.48 1620 497.37C1644.23 520.48 1671.7 517.58 1671.7 540C1671.7 564.21 1652.95 577.53 1620 590.63C1492.1 641.47 1481.33 678.92 1350 667.89C1211.33 656.25 1204.57 523.58 1080 545.29C934.57 570.64 952.59 666.94 810 762C754.06 799.29 682.94 761.99 682.94 810C682.94 905.99 710.45 990.62 810 1050C908.98 1109.04 948.32 1068.79 1080 1046.84C1218.32 1023.79 1212.03 989.23 1350 960C1482.03 932.03 1485.13 931.25 1620 932.44C1755.13 933.63 1767.84 919.84 1890 964.76C1968.46 993.62 2021.25 1047.1 2021.25 1080C2021.25 1104.72 1955.63 1080 1890 1080C1755 1080 1755 1080 1620 1080C1485 1080 1485 1080 1350 1080C1215 1080 1215 1080 1080 1080C945 1080 945 1080 810 1080C675 1080 675 1080 540 1080C504 1080 497.82 1097.57 468 1080C362.82 1018.02 369.72 999.52 270 920.89C198.51 864.52 165.81 885.67 125.58 810C64.56 695.23 114.06 665.55 67.5 540C51.27 496.23 10.92 515.03 0 471.36C-22.83 380.03 0 370.68 0 270C0 201.73 -34.53 133.45 0 133.45" stroke="rgba(51, 121, 194, 0.58)" stroke-width="2"></path><path d="M1890 20.77C1887.31 10.41 1884.81 8.36 1884.81 0C1884.81 -2.03 1887.4 0 1890 0C1898.44 0 1898.78 -2.29 1906.88 0C2033.78 35.92 2086.93 -1.52 2160 76.42C2213.49 133.48 2160 173.21 2160 270C2160 405 2160 405 2160 540C2160 582.19 2172.77 624.38 2160 624.38C2144.65 624.38 2129.14 583.85 2103.75 540C2026.54 406.66 2013.04 411.47 1954.8 270C1906.16 151.86 1922.31 145.41 1890 20.77" stroke="rgba(51, 121, 194, 0.58)" stroke-width="2"></path><path d="M0 211.03C25.17 211.03 80.16 236.66 80.16 270C80.16 309.62 23.1 356.95 0 356.95C-16.98 356.95 0 313.48 0 270C0 240.51 -14.91 211.03 0 211.03" stroke="rgba(51, 121, 194, 0.58)" stroke-width="2"></path><path d="M1069.81 270C1069.81 252.46 1071.33 234 1080 234C1090.63 234 1108.42 253.94 1108.42 270C1108.42 282.33 1091.65 290.77 1080 290.77C1072.34 290.77 1069.81 280.85 1069.81 270" stroke="rgba(51, 121, 194, 0.58)" stroke-width="2"></path><path d="M2089.8 270C2089.8 231.51 2139.18 203.77 2160 203.77C2174.28 203.77 2160 236.88 2160 270C2160 332.68 2176.36 395.36 2160 395.36C2141.26 395.36 2089.8 327.3 2089.8 270" stroke="rgba(51, 121, 194, 0.58)" stroke-width="2"></path><path d="M180 540C180 487.59 220.49 456.92 270 456.92C336.54 456.92 412.11 479.67 412.11 540C412.11 643.94 330.39 785.45 270 785.45C214.34 785.45 180 651.86 180 540" stroke="rgba(51, 121, 194, 0.58)" stroke-width="2"></path><path d="M702 540C702 510.4 756.96 488.57 810 488.57C855.96 488.57 900 510.78 900 540C900 572.49 856.56 612 810 612C757.56 612 702 572.12 702 540" stroke="rgba(51, 121, 194, 0.58)" stroke-width="2"></path><path d="M1227.27 540C1227.27 480.68 1284.99 394.05 1350 394.05C1421.35 394.05 1500 482.6 1500 540C1500 583.99 1423.98 596.84 1350 596.84C1287.62 596.84 1227.27 582.07 1227.27 540" stroke="rgba(51, 121, 194, 0.58)" stroke-width="2"></path><path d="M1227.27 1080C1227.27 1068.4 1286.11 1046.24 1350 1035C1482.48 1011.7 1485.33 1007.92 1620 1010.93C1755.33 1013.95 1760.06 1017.88 1890 1047.07C1913.81 1052.42 1927.5 1070.6 1927.5 1080C1927.5 1087.06 1908.75 1080 1890 1080C1755 1080 1755 1080 1620 1080C1485 1080 1485 1080 1350 1080C1288.64 1080 1227.27 1090.9 1227.27 1080" stroke="rgba(51, 121, 194, 0.58)" stroke-width="2"></path></g><defs><mask id="SvgjsMask1019"><rect width="1920" height="1080" fill="#ffffff"></rect></mask></defs></svg>