<svg xmlns="http://www.w3.org/2000/svg" version="1.1" xmlns:xlink="http://www.w3.org/1999/xlink" xmlns:svgjs="http://svgjs.com/svgjs" width="1920" height="1080" preserveAspectRatio="none" viewBox="0 0 1920 1080"><g mask="url(&quot;#SvgjsMask1001&quot;)" fill="none"><rect width="1920" height="1080" x="0" y="0" fill="#0e2a47"></rect><path d="M427.5 0C494.04 25.6 489.18 103.85 540 103.85C582.25 103.85 560.54 20.42 613.64 0C695.54 -31.5 711.82 0 810 0C898.53 0 940.28 -52.61 987.05 0C1060.28 82.39 1040.15 133.48 1050 270C1059.63 403.48 1013.85 417.02 1026 540C1028.85 568.89 1051.15 573.75 1080 573.75C1125.8 573.75 1172.22 580.34 1175.29 540C1183.79 428.47 1096.25 402.98 1103.14 270C1110.24 132.98 1121.5 89.43 1203.26 0C1244.93 -45.57 1276.63 0 1350 0C1485 0 1485 0 1620 0C1755 0 1755 0 1890 0C2025 0 2092.5 -67.5 2160 0C2227.5 67.5 2160 135 2160 270C2160 354.71 2212.04 406.02 2160 439.41C2077.04 492.63 2023.57 428.35 1890 443.21C1753.57 458.39 1752.79 464.31 1620 499.5C1570.15 512.71 1524.71 513.62 1524.71 540C1524.71 570.69 1563.77 599.28 1620 613.64C1746.41 645.92 1755.45 637.57 1890 633.27C2025.45 628.94 2084.32 546.84 2160 596.37C2219.32 635.2 2160 703.18 2160 810C2160 945 2222.53 1007.53 2160 1080C2106.06 1142.53 2035.34 1097.63 1927.06 1080C1900.34 1075.65 1913.84 1036.05 1890 1036.05C1842.81 1036.05 1840.11 1071.03 1785 1080C1705.11 1093 1702.5 1080 1620 1080C1532.64 1080 1469.28 1132.47 1445.29 1080C1407.56 997.47 1522.76 931.19 1496.57 810C1475.11 710.69 1412.47 639 1350 639C1297.14 639 1319.45 731.98 1265.9 810C1184.45 928.66 1173.11 921.31 1080 1032.35C1059.91 1056.31 1068.41 1074.9 1039.5 1080C933.41 1098.72 924.75 1080 810 1080C718.2 1080 705.24 1108.67 626.4 1080C570.24 1059.58 597.28 988.33 540 981.82C419.08 968.08 405.16 1011.42 270 1039.5C168.91 1060.51 169.24 1064.74 67.5 1080C34.24 1084.99 21.75 1092 0 1080C-12 1073.38 -4.81 1060.65 0 1042.76C31.48 925.65 72.58 917.65 72.58 810C72.58 764.18 12.57 782.58 0 735.82C-23.72 647.58 0 637.91 0 540C0 405 0 405 0 270C0 135 -67.5 67.5 0 0C67.5 -67.5 135 0 270 0C348.75 0 359.04 -26.33 427.5 0" stroke="rgba(51, 121, 194, 0.58)" stroke-width="2"></path><path d="M246 0C246 56.73 75.31 201.27 0 201.27C-47.69 201.27 -55.35 45.29 0 0C67.65 -55.35 246 -43.91 246 0" stroke="rgba(51, 121, 194, 0.58)" stroke-width="2"></path><path d="M551.25 270C533.86 145.17 630.74 110.21 736.36 0C760.12 -24.79 773.18 0 810 0C843.19 0 865.19 -26.3 876.39 0C922.69 108.7 941.34 139.9 925 270C908.14 404.28 891.52 528.75 810 528.75C704.65 528.75 570.68 409.54 551.25 270" stroke="rgba(51, 121, 194, 0.58)" stroke-width="2"></path><path d="M1199.57 270C1199.57 140.26 1240.17 48.83 1350 0C1450.38 -44.63 1483.37 76.25 1620 83.08C1753.37 89.75 1764.67 64.76 1890 27C1902.54 23.22 1882.97 1.28 1895.74 0C2017.97 -12.22 2094.64 -66.77 2160 0C2226.77 68.23 2160 135 2160 270C2160 288.53 2176.29 304.29 2160 307.06C2041.29 327.22 2024.93 309.93 1890 315.85C1754.93 321.78 1747.29 294.73 1620 330.75C1477.29 371.14 1465.38 485.35 1350 468.68C1255.16 454.98 1199.57 374.6 1199.57 270" stroke="rgba(51, 121, 194, 0.58)" stroke-width="2"></path><path d="M0 338.73C52.07 338.73 88.67 441.36 181.48 540C223.67 584.85 215.1 623.41 270 625.71C394.36 630.91 402.79 575.06 540 555C672.79 535.58 685.95 510.14 810 546.75C955.95 589.83 955.17 619.2 1080 714.38C1127.79 750.82 1155.25 762.75 1155.25 810C1155.25 855.56 1117.87 855.21 1080 900C1003.74 990.21 1017.29 1019.81 927 1080C882.29 1109.81 868.5 1080 810 1080C763.2 1080 751.44 1106.01 716.4 1080C616.44 1005.79 648.88 910.01 540 879.55C425.68 847.57 387.32 975.8 270 955.13C189.9 941.02 209.93 880.41 145.16 810C74.93 733.67 45.76 746.76 0 661.65C-26.82 611.76 0 600.83 0 540C0 439.37 -38.67 338.73 0 338.73" stroke="rgba(51, 121, 194, 0.58)" stroke-width="2"></path><path d="M1741.5 810C1741.5 779.78 1815.06 780.97 1890 756C2024.31 711.25 2069.54 652.46 2160 670.55C2204.54 679.46 2160 740.28 2160 810C2160 945 2196.64 981.64 2160 1080C2146.35 1116.64 2096.78 1107.81 2059.41 1080C1961.78 1007.34 1987.93 962.24 1890 879.07C1828.97 827.24 1741.5 841.32 1741.5 810" stroke="rgba(51, 121, 194, 0.58)" stroke-width="2"></path><path d="M96 0C96 22.14 29.39 78.55 0 78.55C-18.61 78.55 -21.6 17.67 0 0C26.4 -21.6 96 -17.14 96 0" stroke="rgba(51, 121, 194, 0.58)" stroke-width="2"></path><path d="M1296 270C1296 223.43 1313.01 173.08 1350 173.08C1403.01 173.08 1476 225.98 1476 270C1476 310.1 1405.63 341.32 1350 341.32C1315.63 341.32 1296 307.55 1296 270" stroke="rgba(51, 121, 194, 0.58)" stroke-width="2"></path><path d="M2160 145.38C2125.91 145.38 2039.36 44.36 2039.36 0C2039.36 -28.33 2132.64 -32.96 2160 0C2192.96 39.73 2186.23 145.38 2160 145.38" stroke="rgba(51, 121, 194, 0.58)" stroke-width="2"></path><path d="M0 461.45C20.32 461.45 70.82 505.11 70.82 540C70.82 568.12 22.75 587.47 0 587.47C-12.66 587.47 0 563.74 0 540C0 500.72 -15.09 461.45 0 461.45" stroke="rgba(51, 121, 194, 0.58)" stroke-width="2"></path><path d="M217.74 810C217.74 772.93 232.28 732.86 270 732.86C351.87 732.86 456.92 775.04 456.92 810C456.92 843.98 354.95 870.75 270 870.75C235.36 870.75 217.74 841.88 217.74 810" stroke="rgba(51, 121, 194, 0.58)" stroke-width="2"></path><path d="M638.18 810C638.87 740.5 724.09 715.5 810 715.5C895.91 715.5 980.96 740.44 981.82 810C983.21 922.69 899.21 946.89 814.5 1080C813.3 1081.89 812.25 1080 810 1080C808.2 1080 807.36 1081.51 806.4 1080C721.45 946.51 637.07 922.75 638.18 810" stroke="rgba(51, 121, 194, 0.58)" stroke-width="2"></path><path d="M1995 810C1995 754.84 2099.69 744.73 2160 744.73C2182.19 744.73 2160 777.37 2160 810C2160 916.07 2196.39 1022.14 2160 1022.14C2113.89 1022.14 1995 893.55 1995 810" stroke="rgba(51, 121, 194, 0.58)" stroke-width="2"></path></g><defs><mask id="SvgjsMask1001"><rect width="1920" height="1080" fill="#ffffff"></rect></mask></defs></svg>