<svg xmlns="http://www.w3.org/2000/svg" version="1.1" xmlns:xlink="http://www.w3.org/1999/xlink" xmlns:svgjs="http://svgjs.com/svgjs" width="1440" height="560" preserveAspectRatio="none" viewBox="0 0 1440 560"><g mask="url(&quot;#SvgjsMask1002&quot;)" fill="none"><rect width="1440" height="560" x="0" y="0" fill="#0e2a47"></rect><path d="M280 113.19C270.91 113.19 262.74 124.8 262.74 140C262.74 190.71 270.71 245 280 245C289.34 245 300 190.2 300 140C300 124.29 289.54 113.19 280 113.19" stroke="rgba(51, 121, 194, 0.58)" stroke-width="2"></path><path d="M700 125.82C678.83 125.82 655.2 132.5 655.2 140C655.2 147.59 679.08 156 700 156C710.81 156 718.67 147.72 718.67 140C718.67 132.63 710.56 125.82 700 125.82" stroke="rgba(51, 121, 194, 0.58)" stroke-width="2"></path><path d="M963.2 0C974.33 1.28 968.99 13.12 980 16.15C1047.39 34.66 1053.11 48.11 1120 43.08C1160.45 40.04 1154.85 12.25 1194.67 0C1224.85 -9.29 1227.34 0 1260 0C1330 0 1330 0 1400 0C1470 0 1505 -35 1540 0C1575 35 1540 70 1540 140C1540 210 1540 210 1540 280C1540 350 1540 350 1540 420C1540 432.97 1550.64 441.2 1540 445.93C1480.64 472.31 1467.75 488.65 1400 482.22C1331.08 475.68 1333.42 450.9 1266.67 420C1263.42 418.5 1263.2 417.41 1260 417.41C1257.87 417.41 1256.07 417.65 1256 420C1253.95 488.95 1290.28 524.46 1255.76 560C1222.28 594.46 1187.88 560 1120 560C1067.3 560 1061.5 572.96 1014.59 560C991.5 553.62 1000.19 521.32 980 521.32C950.94 521.32 950.77 550.42 916.09 560C880.77 569.76 878.05 560 840 560C770 560 770 560 700 560C630 560 630 560 560 560C490 560 490 560 420 560C350 560 350 560 280 560C211.84 560 210.72 562.27 143.68 560C140.72 559.9 142.1 555.25 140 555.25C137.4 555.25 137.96 559.88 134.29 560C67.96 562.25 32.87 594.27 0 560C-34.27 524.27 0 490 0 420C0 369.85 -28.96 345.5 0 319.7C41.04 283.15 69.92 307 140 295.31C188.92 287.15 238 287.29 238 280C238 272.73 188.24 276.77 140 266.2C69.24 250.69 43.61 267.15 0 227.84C-26.39 204.05 0 183.92 0 140C0 70 -35 35 0 0C35 -35 70 0 140 0C210 0 210 0 280 0C350 0 350 0 420 0C490 0 490 0 560 0C630 0 630 0 700 0C770 0 770 0 840 0C901.6 0 904.33 -6.79 963.2 0" stroke="rgba(51, 121, 194, 0.58)" stroke-width="2"></path><path d="M1400 106.84C1340.1 106.84 1290.14 101.89 1280 140C1267.1 188.47 1315.91 210.58 1353.92 280C1375.91 320.15 1378.71 359.13 1400 359.13C1420.32 359.13 1416.9 318.71 1437.14 280C1474.18 209.15 1525.19 189.6 1514.55 140C1506.62 103.02 1457.38 106.84 1400 106.84" stroke="rgba(51, 121, 194, 0.58)" stroke-width="2"></path><path d="M980 272.33C967.7 272.33 955.65 275.76 955.65 280C955.65 284.34 967.65 289.49 980 289.49C995.38 289.49 1011.11 284.32 1011.11 280C1011.11 275.74 995.43 272.33 980 272.33" stroke="rgba(51, 121, 194, 0.58)" stroke-width="2"></path><path d="M700 417.78C698.68 417.78 697.14 418.71 697.14 420C697.14 421.66 698.74 423.68 700 423.68C701.13 423.68 701.92 421.73 701.92 420C701.92 418.78 701.07 417.78 700 417.78" stroke="rgba(51, 121, 194, 0.58)" stroke-width="2"></path><path d="M0 50.91C42.84 19.97 72.86 54.79 140 38.89C180.36 29.33 175.44 10.99 215 0C245.44 -8.46 247.5 0 280 0C323.34 0 366.67 -9.24 366.67 0C366.67 10.12 313.47 7.87 280 38.72C237.53 77.87 251.82 92.88 214.79 140C181.82 181.97 184.53 212.91 140 216.9C77.14 222.52 62.12 193.34 0 159.22C-7.88 154.89 0 149.61 0 140C0 95.45 -27.16 70.53 0 50.91" stroke="rgba(51, 121, 194, 0.58)" stroke-width="2"></path><path d="M355.56 140C370.09 80.55 380.76 30.27 420 30.27C467.85 30.27 510.47 75.32 529.73 140C547.66 200.18 484.89 218.76 494.38 280C500.02 316.39 530.52 335.26 560 335.26C583.52 335.26 575.5 302.97 600.38 280C645.5 238.34 651.4 244.52 700 206C739.71 174.52 777 171.86 777 140C777 109.62 739.2 109.8 700 81.52C642.16 39.8 582.91 22.39 582.91 0C582.91 -18.37 641.45 0 700 0C770 0 770 0 840 0C878.26 0 883.98 -14.19 916.53 0C953.98 16.33 945.09 34.5 980 61.03C1037.21 104.5 1100.78 99.59 1100.78 140C1100.78 181.26 1046.12 195.34 980 224.38C915.73 252.61 905.17 231.83 840 254.55C825.4 259.64 820.47 268.43 820.47 280C820.47 289.08 828.52 290.9 840 295.85C908.29 325.31 907.72 333.02 980 348.81C1047.72 363.6 1062.01 333.54 1120 357C1150.01 369.14 1142.37 386.55 1156 420C1183.73 488.05 1214.26 515.14 1202.73 560C1196.26 585.14 1161.36 560 1120 560C1087.88 560 1081.04 575.3 1055.76 560C1011.04 532.93 1024.22 475.26 980 475.26C916.34 475.26 910 517.63 840 560C840 560 840 560 840 560C770 560 770 560 700 560C630 560 630 560 560 560C498.24 560 484.9 578.16 436.47 560C414.9 551.91 427.96 507.5 420 507.5C412.09 507.5 426.06 552 404.73 560C356.06 578.25 342.37 560 280 560C234.87 560 226.61 576.87 189.74 560C156.61 544.84 168.37 495.93 140 495.93C104.93 495.93 105.89 540.31 62.86 560C35.89 572.34 9.74 581.69 0 560C-21.69 511.69 0 490 0 420C0 395.97 -17.73 380.8 0 371.94C52.27 345.8 76.59 336.53 140 350C189.67 360.56 182.6 385.6 226.15 420C252.6 440.89 250.67 460.58 280 460.58C324.26 460.58 356.76 457.89 373.33 420C396.24 367.6 363.42 350.17 358.97 280C354.54 210.17 339.57 205.42 355.56 140" stroke="rgba(51, 121, 194, 0.58)" stroke-width="2"></path><path d="M1400 60.79C1353.39 60.79 1309.41 16.61 1309.41 0C1309.41 -13.79 1354.7 0 1400 0C1455 0 1510 -14.19 1510 0C1510 16.21 1453.69 60.79 1400 60.79" stroke="rgba(51, 121, 194, 0.58)" stroke-width="2"></path><path d="M1159.49 280C1159.49 241.73 1216.56 201.6 1260 201.6C1291.62 201.6 1309.62 241.24 1309.62 280C1309.62 316.73 1291.15 352.59 1260 352.59C1216.08 352.59 1159.49 317.22 1159.49 280" stroke="rgba(51, 121, 194, 0.58)" stroke-width="2"></path><path d="M1472.86 280C1472.86 231.5 1521.57 183.24 1540 183.24C1555.14 183.24 1540 231.62 1540 280C1540 329.11 1555.18 378.21 1540 378.21C1521.61 378.21 1472.86 328.99 1472.86 280" stroke="rgba(51, 121, 194, 0.58)" stroke-width="2"></path><path d="M700 362.22C665.72 362.22 625.71 386.44 625.71 420C625.71 463.23 667.17 515.79 700 515.79C729.25 515.79 749.86 464.99 749.86 420C749.86 388.2 727.8 362.22 700 362.22" stroke="rgba(51, 121, 194, 0.58)" stroke-width="2"></path><path d="M78.75 140C78.75 123.56 113.04 103.7 140 103.7C157.09 103.7 166.85 122.75 166.85 140C166.85 154.71 156.05 167.61 140 167.61C112 167.61 78.75 155.51 78.75 140" stroke="rgba(51, 121, 194, 0.58)" stroke-width="2"></path><path d="M411.11 140C411.11 131.66 414.59 124.86 420 124.86C426.6 124.86 435.14 130.61 435.14 140C435.14 161.52 426.1 186.67 420 186.67C414.09 186.67 411.11 162.57 411.11 140" stroke="rgba(51, 121, 194, 0.58)" stroke-width="2"></path><path d="M700 37.22C673.85 17.82 646.55 10.22 646.55 0C646.55 -8.39 673.28 0 700 0C770 0 770 0 840 0C854.93 0 858.42 -8.66 869.87 0C928.42 44.29 922.36 56.18 980 105.9C1003.51 126.18 1032.16 122.55 1032.16 140C1032.16 157.82 1009.62 175.13 980 176.44C913.54 179.37 907.74 165.54 840 148.48C835.41 147.32 839.1 143 835.33 140C769.1 87.37 768.24 87.82 700 37.22" stroke="rgba(51, 121, 194, 0.58)" stroke-width="2"></path><path d="M1400 14.74C1388.7 14.74 1378.04 4.03 1378.04 0C1378.04 -3.34 1389.02 0 1400 0C1413.34 0 1426.67 -3.44 1426.67 0C1426.67 3.93 1413.02 14.74 1400 14.74" stroke="rgba(51, 121, 194, 0.58)" stroke-width="2"></path><path d="M667.69 280C667.69 267.59 683.32 256 700 256C719.01 256 739.07 267.53 739.07 280C739.07 292.86 718.93 306.67 700 306.67C683.24 306.67 667.69 292.92 667.69 280" stroke="rgba(51, 121, 194, 0.58)" stroke-width="2"></path><path d="M1249.23 280C1249.23 275.9 1255.34 271.6 1260 271.6C1263.39 271.6 1265.32 275.85 1265.32 280C1265.32 283.94 1263.34 287.78 1260 287.78C1255.29 287.78 1249.23 283.99 1249.23 280" stroke="rgba(51, 121, 194, 0.58)" stroke-width="2"></path><path d="M1508.57 280C1508.57 257.3 1531.37 234.71 1540 234.71C1547.09 234.71 1540 257.36 1540 280C1540 302.99 1547.11 325.97 1540 325.97C1531.39 325.97 1508.57 302.93 1508.57 280" stroke="rgba(51, 121, 194, 0.58)" stroke-width="2"></path><path d="M31.11 420C31.11 412.03 87.68 404.69 140 404.69C151.55 404.69 158.85 412.16 158.85 420C158.85 428.12 151.86 436.61 140 436.61C87.99 436.61 31.11 427.99 31.11 420" stroke="rgba(51, 121, 194, 0.58)" stroke-width="2"></path><path d="M797.81 420C797.81 390.35 810.16 363.83 840 361.89C901.26 357.9 910.11 384.71 980 408.14C996.77 413.76 1013.33 414.67 1013.33 420C1013.33 425.21 996.16 423.1 980 429.21C909.49 455.87 900.07 488.57 840 485.53C808.98 483.96 797.81 452.17 797.81 420" stroke="rgba(51, 121, 194, 0.58)" stroke-width="2"></path><path d="M235.79 560C235.79 545.44 255.93 511.3 280 511.3C308.58 511.3 341.09 546.34 341.09 560C341.09 570.69 310.54 560 280 560C257.89 560 235.79 569.79 235.79 560" stroke="rgba(51, 121, 194, 0.58)" stroke-width="2"></path><path d="M505.1 560C505.1 514.42 526.78 432.73 560 432.73C596.66 432.73 644.85 519.07 644.85 560C644.85 582.7 602.42 560 560 560C532.55 560 505.1 578.05 505.1 560" stroke="rgba(51, 121, 194, 0.58)" stroke-width="2"></path><path d="M1096.94 560C1096.94 535.49 1107.04 494.67 1120 494.67C1133.42 494.67 1149.7 536.9 1149.7 560C1149.7 569.56 1134.85 560 1120 560C1108.47 560 1096.94 568.16 1096.94 560" stroke="rgba(51, 121, 194, 0.58)" stroke-width="2"></path></g><defs><mask id="SvgjsMask1002"><rect width="1440" height="560" fill="#ffffff"></rect></mask></defs></svg>