<svg xmlns="http://www.w3.org/2000/svg" version="1.1" xmlns:xlink="http://www.w3.org/1999/xlink" xmlns:svgjs="http://svgjs.com/svgjs" width="1920" height="1080" preserveAspectRatio="none" viewBox="0 0 1920 1080"><g mask="url(&quot;#SvgjsMask1030&quot;)" fill="none"><rect width="1920" height="1080" x="0" y="0" fill="rgba(14, 42, 71, 1)"></rect><path d="M478 552L790 864" stroke-width="8" stroke="url(#SvgjsLinearGradient1031)" stroke-linecap="round" class="TopLeft"></path><path d="M1344 354L979 -11" stroke-width="10" stroke="url(#SvgjsLinearGradient1032)" stroke-linecap="round" class="BottomRight"></path><path d="M1091 161L1802 872" stroke-width="10" stroke="url(#SvgjsLinearGradient1031)" stroke-linecap="round" class="TopLeft"></path><path d="M330 127L1075 872" stroke-width="8" stroke="url(#SvgjsLinearGradient1032)" stroke-linecap="round" class="BottomRight"></path><path d="M804 179L1150 525" stroke-width="6" stroke="url(#SvgjsLinearGradient1031)" stroke-linecap="round" class="TopLeft"></path><path d="M19 165L-349 -203" stroke-width="10" stroke="url(#SvgjsLinearGradient1032)" stroke-linecap="round" class="BottomRight"></path><path d="M423 328L-365 -460" stroke-width="6" stroke="url(#SvgjsLinearGradient1031)" stroke-linecap="round" class="TopLeft"></path><path d="M1495 211L2065 781" stroke-width="6" stroke="url(#SvgjsLinearGradient1031)" stroke-linecap="round" class="TopLeft"></path><path d="M405 554L-126 23" stroke-width="10" stroke="url(#SvgjsLinearGradient1031)" stroke-linecap="round" class="TopLeft"></path><path d="M1015 23L1743 751" stroke-width="10" stroke="url(#SvgjsLinearGradient1032)" stroke-linecap="round" class="BottomRight"></path><path d="M866 694L1489 1317" stroke-width="8" stroke="url(#SvgjsLinearGradient1032)" stroke-linecap="round" class="BottomRight"></path><path d="M1785 736L1480 431" stroke-width="10" stroke="url(#SvgjsLinearGradient1032)" stroke-linecap="round" class="BottomRight"></path><path d="M1657 791L1061 195" stroke-width="6" stroke="url(#SvgjsLinearGradient1031)" stroke-linecap="round" class="TopLeft"></path><path d="M924 409L1298 783" stroke-width="10" stroke="url(#SvgjsLinearGradient1031)" stroke-linecap="round" class="TopLeft"></path><path d="M1729 124L2023 418" stroke-width="10" stroke="url(#SvgjsLinearGradient1031)" stroke-linecap="round" class="TopLeft"></path><path d="M1675 872L2447 1644" stroke-width="10" stroke="url(#SvgjsLinearGradient1032)" stroke-linecap="round" class="BottomRight"></path><path d="M403 797L754 1148" stroke-width="8" stroke="url(#SvgjsLinearGradient1032)" stroke-linecap="round" class="BottomRight"></path><path d="M115 472L-382 -25" stroke-width="10" stroke="url(#SvgjsLinearGradient1031)" stroke-linecap="round" class="TopLeft"></path><path d="M1045 813L1685 1453" stroke-width="6" stroke="url(#SvgjsLinearGradient1032)" stroke-linecap="round" class="BottomRight"></path><path d="M1416 629L2058 1271" stroke-width="8" stroke="url(#SvgjsLinearGradient1032)" stroke-linecap="round" class="BottomRight"></path><path d="M1751 864L1198 311" stroke-width="6" stroke="url(#SvgjsLinearGradient1031)" stroke-linecap="round" class="TopLeft"></path><path d="M374 362L-185 -197" stroke-width="10" stroke="url(#SvgjsLinearGradient1032)" stroke-linecap="round" class="BottomRight"></path><path d="M401 853L-163 289" stroke-width="6" stroke="url(#SvgjsLinearGradient1031)" stroke-linecap="round" class="TopLeft"></path><path d="M1180 385L1986 1191" stroke-width="10" stroke="url(#SvgjsLinearGradient1031)" stroke-linecap="round" class="TopLeft"></path><path d="M1424 1016L684 276" stroke-width="10" stroke="url(#SvgjsLinearGradient1031)" stroke-linecap="round" class="TopLeft"></path><path d="M1593 186L2291 884" stroke-width="8" stroke="url(#SvgjsLinearGradient1032)" stroke-linecap="round" class="BottomRight"></path><path d="M1301 705L633 37" stroke-width="8" stroke="url(#SvgjsLinearGradient1032)" stroke-linecap="round" class="BottomRight"></path><path d="M228 46L581 399" stroke-width="8" stroke="url(#SvgjsLinearGradient1032)" stroke-linecap="round" class="BottomRight"></path><path d="M1807 1046L1481 720" stroke-width="6" stroke="url(#SvgjsLinearGradient1031)" stroke-linecap="round" class="TopLeft"></path><path d="M1708 242L1178 -288" stroke-width="6" stroke="url(#SvgjsLinearGradient1031)" stroke-linecap="round" class="TopLeft"></path><path d="M409 913L1216 1720" stroke-width="8" stroke="url(#SvgjsLinearGradient1031)" stroke-linecap="round" class="TopLeft"></path><path d="M888 325L1629 1066" stroke-width="6" stroke="url(#SvgjsLinearGradient1031)" stroke-linecap="round" class="TopLeft"></path><path d="M1198 168L678 -352" stroke-width="10" stroke="url(#SvgjsLinearGradient1032)" stroke-linecap="round" class="BottomRight"></path><path d="M650 410L1185 945" stroke-width="8" stroke="url(#SvgjsLinearGradient1032)" stroke-linecap="round" class="BottomRight"></path><path d="M726 718L254 246" stroke-width="8" stroke="url(#SvgjsLinearGradient1032)" stroke-linecap="round" class="BottomRight"></path><path d="M1813 4L1232 -577" stroke-width="8" stroke="url(#SvgjsLinearGradient1031)" stroke-linecap="round" class="TopLeft"></path><path d="M1090 102L663 -325" stroke-width="6" stroke="url(#SvgjsLinearGradient1032)" stroke-linecap="round" class="BottomRight"></path><path d="M858 126L1543 811" stroke-width="8" stroke="url(#SvgjsLinearGradient1031)" stroke-linecap="round" class="TopLeft"></path><path d="M1735 852L1418 535" stroke-width="10" stroke="url(#SvgjsLinearGradient1031)" stroke-linecap="round" class="TopLeft"></path><path d="M835 298L85 -452" stroke-width="10" stroke="url(#SvgjsLinearGradient1031)" stroke-linecap="round" class="TopLeft"></path><path d="M1114 354L1877 1117" stroke-width="6" stroke="url(#SvgjsLinearGradient1032)" stroke-linecap="round" class="BottomRight"></path><path d="M884 603L477 196" stroke-width="6" stroke="url(#SvgjsLinearGradient1032)" stroke-linecap="round" class="BottomRight"></path><path d="M1268 532L1682 946" stroke-width="8" stroke="url(#SvgjsLinearGradient1031)" stroke-linecap="round" class="TopLeft"></path><path d="M1384 912L1724 1252" stroke-width="8" stroke="url(#SvgjsLinearGradient1032)" stroke-linecap="round" class="BottomRight"></path><path d="M423 406L-241 -258" stroke-width="10" stroke="url(#SvgjsLinearGradient1031)" stroke-linecap="round" class="TopLeft"></path><path d="M1645 487L2118 960" stroke-width="6" stroke="url(#SvgjsLinearGradient1032)" stroke-linecap="round" class="BottomRight"></path><path d="M316 348L1098 1130" stroke-width="8" stroke="url(#SvgjsLinearGradient1032)" stroke-linecap="round" class="BottomRight"></path><path d="M15 506L708 1199" stroke-width="8" stroke="url(#SvgjsLinearGradient1031)" stroke-linecap="round" class="TopLeft"></path><path d="M693 295L1453 1055" stroke-width="6" stroke="url(#SvgjsLinearGradient1032)" stroke-linecap="round" class="BottomRight"></path><path d="M343 675L759 1091" stroke-width="6" stroke="url(#SvgjsLinearGradient1032)" stroke-linecap="round" class="BottomRight"></path><path d="M1575 636L1269 330" stroke-width="6" stroke="url(#SvgjsLinearGradient1031)" stroke-linecap="round" class="TopLeft"></path><path d="M613 52L944 383" stroke-width="10" stroke="url(#SvgjsLinearGradient1032)" stroke-linecap="round" class="BottomRight"></path><path d="M943 919L144 120" stroke-width="10" stroke="url(#SvgjsLinearGradient1031)" stroke-linecap="round" class="TopLeft"></path><path d="M606 298L-88 -396" stroke-width="8" stroke="url(#SvgjsLinearGradient1031)" stroke-linecap="round" class="TopLeft"></path><path d="M1177 741L391 -45" stroke-width="10" stroke="url(#SvgjsLinearGradient1031)" stroke-linecap="round" class="TopLeft"></path><path d="M1045 781L1591 1327" stroke-width="10" stroke="url(#SvgjsLinearGradient1031)" stroke-linecap="round" class="TopLeft"></path></g><defs><mask id="SvgjsMask1030"><rect width="1920" height="1080" fill="#ffffff"></rect></mask><linearGradient x1="100%" y1="100%" x2="0%" y2="0%" id="SvgjsLinearGradient1031"><stop stop-color="rgba(77, 112, 159, 0)" offset="0"></stop><stop stop-color="rgba(77, 112, 159, 1)" offset="1"></stop></linearGradient><linearGradient x1="0%" y1="0%" x2="100%" y2="100%" id="SvgjsLinearGradient1032"><stop stop-color="rgba(77, 112, 159, 0)" offset="0"></stop><stop stop-color="rgba(77, 112, 159, 1)" offset="1"></stop></linearGradient></defs></svg>