<svg xmlns="http://www.w3.org/2000/svg" version="1.1" xmlns:xlink="http://www.w3.org/1999/xlink" xmlns:svgjs="http://svgjs.com/svgjs" width="2000" height="1500" preserveAspectRatio="none" viewBox="0 0 2000 1500"><g mask="url(&quot;#SvgjsMask1037&quot;)" fill="none"><rect width="2000" height="1500" x="0" y="0" fill="#0e2a47"></rect><path d="M750 297.41C676.38 297.41 654.07 312.21 606.38 375C482.2 538.5 367.31 620.38 406.25 750C439.12 859.44 593.35 853.13 750 853.13C809.11 853.13 814.11 812 837.77 750C905.33 572.93 961.44 524.61 932.43 375C917.56 298.31 839.41 297.41 750 297.41" stroke="rgba(51, 121, 194, 0.58)" stroke-width="2"></path><path d="M1500 345C1470.65 345 1434.78 362.18 1434.78 375C1434.78 387.18 1469.21 395 1500 395C1514.75 395 1525.86 386.3 1525.86 375C1525.86 361.3 1516.19 345 1500 345" stroke="rgba(51, 121, 194, 0.58)" stroke-width="2"></path><path d="M375 772.06C317.49 772.06 275 963.81 275 1125C275 1182.53 322.11 1209.51 375 1209.51C438.77 1209.51 508.33 1189.52 508.33 1125C508.33 970.79 434.15 772.06 375 772.06" stroke="rgba(51, 121, 194, 0.58)" stroke-width="2"></path><path d="M323.28 375C323.28 357.07 350.7 347.22 375 347.22C392.51 347.22 406.91 358.56 406.91 375C406.91 399.23 394.06 428.57 375 428.57C352.24 428.57 323.28 397.74 323.28 375" stroke="rgba(51, 121, 194, 0.58)" stroke-width="2"></path><path d="M166.67 0C166.67 72.78 46.02 230.77 0 230.77C-37.31 230.77 -48.39 67 0 0C34.95 -48.39 166.67 -42.61 166.67 0" stroke="rgba(51, 121, 194, 0.58)" stroke-width="2"></path><path d="M750 189.66C640.33 130.41 574.47 56.47 574.47 0C574.47 -38.36 662.24 0 750 0C937.5 0 937.5 0 1125 0C1312.5 0 1312.5 0 1500 0C1557.07 0 1614.13 -29.12 1614.13 0C1614.13 49.63 1579.98 108.87 1500 157.5C1335.42 257.57 1314.89 289.27 1125 297.41C939.89 305.35 915.59 279.12 750 189.66" stroke="rgba(51, 121, 194, 0.58)" stroke-width="2"></path><path d="M1687.5 375C1780.8 303.79 1779.74 233.77 1875 233.77C1976.09 233.77 1993.78 287.88 2080.19 375C2181.28 476.92 2192.4 484.64 2250 611.84C2277.31 672.14 2250 680.92 2250 750C2250 795.26 2278.41 840.52 2250 840.52C2184.66 840.52 2152.88 801.24 2062.5 750C1965.38 694.94 1957.27 627.91 1875 627.91C1819.77 627.91 1787.5 688.21 1787.5 750C1787.5 814.88 1834.21 813.8 1875 881.25C1947.6 1001.3 1929.98 1013.99 2014.29 1125C2117.48 1260.86 2163.58 1237.52 2250 1375C2281.44 1425.02 2296.88 1484.38 2250 1500C2109.38 1546.88 2062.5 1500 1875 1500C1870.43 1500 1868.66 1503.57 1865.85 1500C1720.94 1316.07 1732.16 1302.09 1579.55 1125C1549.24 1089.83 1541.41 1075.47 1500 1075.47C1446.95 1075.47 1445.77 1101.27 1390.63 1125C1258.27 1181.96 1245.57 1160.43 1125 1236.84C949.71 1347.93 966.81 1382.17 798.91 1500C779.31 1513.75 774.45 1500 750 1500C562.5 1500 562.5 1500 375 1500C218.75 1500 201.32 1533.32 62.5 1500C13.82 1488.32 8.68 1462.07 0 1410C-22.57 1274.57 0 1267.5 0 1125C0 937.5 0 937.5 0 750C0 639.35 -46.37 528.69 0 528.69C66.13 528.69 198.43 616.6 225 750C257.81 914.75 78.44 966.05 118.75 1125C153.44 1261.82 239.46 1341.55 375 1341.55C538.42 1341.55 549.86 1238.01 716.67 1125C737.36 1110.98 733.7 1106.57 750 1087.5C893.98 919.07 918.73 933.33 1037.23 750C1106.23 643.26 1030.72 554.21 1125 507.35C1262.1 439.21 1327.63 560.56 1500 520C1608.88 494.38 1593.3 446.9 1687.5 375" stroke="rgba(51, 121, 194, 0.58)" stroke-width="2"></path><path d="M62.5 0C62.5 27.29 17.26 86.54 0 86.54C-13.99 86.54 -18.15 25.12 0 0C13.1 -18.15 62.5 -15.98 62.5 0" stroke="rgba(51, 121, 194, 0.58)" stroke-width="2"></path><path d="M750 81.9C699.72 81.9 674.2 24.39 674.2 0C674.2 -16.56 712.1 0 750 0C919.64 0 1089.29 -20.19 1089.29 0C1089.29 20.76 907.26 81.9 750 81.9" stroke="rgba(51, 121, 194, 0.58)" stroke-width="2"></path><path d="M1849.14 375C1849.14 363.39 1861.86 355.52 1875 355.52C1888.94 355.52 1903.3 363.22 1903.3 375C1903.3 390.4 1888.77 409.88 1875 409.88C1861.69 409.88 1849.14 390.57 1849.14 375" stroke="rgba(51, 121, 194, 0.58)" stroke-width="2"></path><path d="M0 682.38C20.21 682.38 68.75 707.09 68.75 750C68.75 862.22 17.52 992.65 0 992.65C-16.86 992.65 0 871.33 0 750C0 716.19 -14.17 682.38 0 682.38" stroke="rgba(51, 121, 194, 0.58)" stroke-width="2"></path><path d="M1275 750C1275 689.22 1393.78 645 1500 645C1571.91 645 1631.25 691.83 1631.25 750C1631.25 818.62 1575.47 898.58 1500 898.58C1397.35 898.58 1275 816.01 1275 750" stroke="rgba(51, 121, 194, 0.58)" stroke-width="2"></path><path d="M1863.64 1125C1863.64 1119.65 1870.18 1115.63 1875 1115.63C1878.54 1115.63 1880.36 1120.08 1880.36 1125C1880.36 1132.26 1878.83 1140 1875 1140C1870.47 1140 1863.64 1131.84 1863.64 1125" stroke="rgba(51, 121, 194, 0.58)" stroke-width="2"></path><path d="M322.92 1500C322.92 1493.02 348.01 1473.59 375 1473.59C413.12 1473.59 453.13 1493.22 453.13 1500C453.13 1506.42 414.07 1500 375 1500C348.96 1500 322.92 1506.23 322.92 1500" stroke="rgba(51, 121, 194, 0.58)" stroke-width="2"></path></g><defs><mask id="SvgjsMask1037"><rect width="2000" height="1500" fill="#ffffff"></rect></mask></defs></svg>