<svg xmlns="http://www.w3.org/2000/svg" version="1.1" xmlns:xlink="http://www.w3.org/1999/xlink" xmlns:svgjs="http://svgjs.com/svgjs" width="1440" height="1024" preserveAspectRatio="none" viewBox="0 0 1440 1024"><g mask="url(&quot;#SvgjsMask1039&quot;)" fill="none"><rect width="1440" height="1024" x="0" y="0" fill="rgba(255, 255, 255, 1)"></rect><path d="M649 333L1405 1089" stroke-width="10" stroke="url(#SvgjsLinearGradient1040)" stroke-linecap="round" class="TopLeft"></path><path d="M1206 562L866 222" stroke-width="6" stroke="url(#SvgjsLinearGradient1040)" stroke-linecap="round" class="TopLeft"></path><path d="M81 454L498 871" stroke-width="6" stroke="url(#SvgjsLinearGradient1040)" stroke-linecap="round" class="TopLeft"></path><path d="M1285 66L1651 432" stroke-width="10" stroke="url(#SvgjsLinearGradient1040)" stroke-linecap="round" class="TopLeft"></path><path d="M1018 656L450 88" stroke-width="6" stroke="url(#SvgjsLinearGradient1040)" stroke-linecap="round" class="TopLeft"></path><path d="M1172 355L775 -42" stroke-width="8" stroke="url(#SvgjsLinearGradient1040)" stroke-linecap="round" class="TopLeft"></path><path d="M206 673L-204 263" stroke-width="10" stroke="url(#SvgjsLinearGradient1041)" stroke-linecap="round" class="BottomRight"></path><path d="M1093 222L815 -56" stroke-width="6" stroke="url(#SvgjsLinearGradient1041)" stroke-linecap="round" class="BottomRight"></path><path d="M537 305L-182 -414" stroke-width="6" stroke="url(#SvgjsLinearGradient1040)" stroke-linecap="round" class="TopLeft"></path><path d="M619 670L62 113" stroke-width="10" stroke="url(#SvgjsLinearGradient1041)" stroke-linecap="round" class="BottomRight"></path><path d="M1353 390L604 -359" stroke-width="6" stroke="url(#SvgjsLinearGradient1041)" stroke-linecap="round" class="BottomRight"></path><path d="M745 908L444 607" stroke-width="8" stroke="url(#SvgjsLinearGradient1041)" stroke-linecap="round" class="BottomRight"></path><path d="M587 317L937 667" stroke-width="10" stroke="url(#SvgjsLinearGradient1041)" stroke-linecap="round" class="BottomRight"></path><path d="M936 54L1372 490" stroke-width="8" stroke="url(#SvgjsLinearGradient1040)" stroke-linecap="round" class="TopLeft"></path><path d="M1168 90L1655 577" stroke-width="10" stroke="url(#SvgjsLinearGradient1040)" stroke-linecap="round" class="TopLeft"></path><path d="M674 253L-7 -428" stroke-width="6" stroke="url(#SvgjsLinearGradient1041)" stroke-linecap="round" class="BottomRight"></path><path d="M901 946L1425 1470" stroke-width="10" stroke="url(#SvgjsLinearGradient1040)" stroke-linecap="round" class="TopLeft"></path><path d="M697 928L1422 1653" stroke-width="10" stroke="url(#SvgjsLinearGradient1041)" stroke-linecap="round" class="BottomRight"></path><path d="M1026 399L709 82" stroke-width="10" stroke="url(#SvgjsLinearGradient1040)" stroke-linecap="round" class="TopLeft"></path><path d="M852 754L453 355" stroke-width="10" stroke="url(#SvgjsLinearGradient1040)" stroke-linecap="round" class="TopLeft"></path><path d="M79 823L682 1426" stroke-width="8" stroke="url(#SvgjsLinearGradient1040)" stroke-linecap="round" class="TopLeft"></path><path d="M90 870L443 1223" stroke-width="6" stroke="url(#SvgjsLinearGradient1040)" stroke-linecap="round" class="TopLeft"></path><path d="M320 299L624 603" stroke-width="8" stroke="url(#SvgjsLinearGradient1040)" stroke-linecap="round" class="TopLeft"></path><path d="M984 635L1274 925" stroke-width="10" stroke="url(#SvgjsLinearGradient1040)" stroke-linecap="round" class="TopLeft"></path><path d="M994 459L273 -262" stroke-width="8" stroke="url(#SvgjsLinearGradient1040)" stroke-linecap="round" class="TopLeft"></path><path d="M117 461L-182 162" stroke-width="10" stroke="url(#SvgjsLinearGradient1041)" stroke-linecap="round" class="BottomRight"></path><path d="M1092 943L549 400" stroke-width="8" stroke="url(#SvgjsLinearGradient1040)" stroke-linecap="round" class="TopLeft"></path><path d="M200 941L-250 491" stroke-width="6" stroke="url(#SvgjsLinearGradient1041)" stroke-linecap="round" class="BottomRight"></path><path d="M817 147L1125 455" stroke-width="10" stroke="url(#SvgjsLinearGradient1041)" stroke-linecap="round" class="BottomRight"></path><path d="M622 188L-49 -483" stroke-width="10" stroke="url(#SvgjsLinearGradient1041)" stroke-linecap="round" class="BottomRight"></path><path d="M792 334L1202 744" stroke-width="10" stroke="url(#SvgjsLinearGradient1040)" stroke-linecap="round" class="TopLeft"></path><path d="M148 755L-457 150" stroke-width="10" stroke="url(#SvgjsLinearGradient1040)" stroke-linecap="round" class="TopLeft"></path><path d="M784 372L1080 668" stroke-width="8" stroke="url(#SvgjsLinearGradient1040)" stroke-linecap="round" class="TopLeft"></path><path d="M1217 141L1961 885" stroke-width="8" stroke="url(#SvgjsLinearGradient1041)" stroke-linecap="round" class="BottomRight"></path><path d="M175 924L788 1537" stroke-width="6" stroke="url(#SvgjsLinearGradient1041)" stroke-linecap="round" class="BottomRight"></path><path d="M905 594L1550 1239" stroke-width="10" stroke="url(#SvgjsLinearGradient1041)" stroke-linecap="round" class="BottomRight"></path><path d="M50 78L762 790" stroke-width="8" stroke="url(#SvgjsLinearGradient1040)" stroke-linecap="round" class="TopLeft"></path><path d="M895 471L1650 1226" stroke-width="10" stroke="url(#SvgjsLinearGradient1041)" stroke-linecap="round" class="BottomRight"></path><path d="M415 773L-270 88" stroke-width="6" stroke="url(#SvgjsLinearGradient1040)" stroke-linecap="round" class="TopLeft"></path><path d="M885 93L438 -354" stroke-width="10" stroke="url(#SvgjsLinearGradient1041)" stroke-linecap="round" class="BottomRight"></path><path d="M488 659L764 935" stroke-width="8" stroke="url(#SvgjsLinearGradient1041)" stroke-linecap="round" class="BottomRight"></path><path d="M86 646L-322 238" stroke-width="6" stroke="url(#SvgjsLinearGradient1040)" stroke-linecap="round" class="TopLeft"></path><path d="M89 902L-662 151" stroke-width="8" stroke="url(#SvgjsLinearGradient1041)" stroke-linecap="round" class="BottomRight"></path><path d="M817 763L220 166" stroke-width="10" stroke="url(#SvgjsLinearGradient1040)" stroke-linecap="round" class="TopLeft"></path><path d="M1078 523L432 -123" stroke-width="6" stroke="url(#SvgjsLinearGradient1041)" stroke-linecap="round" class="BottomRight"></path></g><defs><mask id="SvgjsMask1039"><rect width="1440" height="1024" fill="#ffffff"></rect></mask><linearGradient x1="100%" y1="100%" x2="0%" y2="0%" id="SvgjsLinearGradient1040"><stop stop-color="rgba(138, 168, 201, 0)" offset="0"></stop><stop stop-color="rgba(138, 168, 201, 1)" offset="1"></stop></linearGradient><linearGradient x1="0%" y1="0%" x2="100%" y2="100%" id="SvgjsLinearGradient1041"><stop stop-color="rgba(138, 168, 201, 0)" offset="0"></stop><stop stop-color="rgba(138, 168, 201, 1)" offset="1"></stop></linearGradient></defs></svg>