<svg xmlns="http://www.w3.org/2000/svg" version="1.1" xmlns:xlink="http://www.w3.org/1999/xlink" xmlns:svgjs="http://svgjs.com/svgjs" width="1440" height="1024" preserveAspectRatio="none" viewBox="0 0 1440 1024"><g mask="url(&quot;#SvgjsMask1114&quot;)" fill="none"><rect width="1440" height="1024" x="0" y="0" fill="rgba(49, 57, 124, 1)"></rect><path d="M1099 26L1804 731" stroke-width="6" stroke="url(#SvgjsLinearGradient1115)" stroke-linecap="round" class="BottomRight"></path><path d="M1209 980L1716 1487" stroke-width="10" stroke="url(#SvgjsLinearGradient1115)" stroke-linecap="round" class="BottomRight"></path><path d="M1352 773L1909 1330" stroke-width="6" stroke="url(#SvgjsLinearGradient1116)" stroke-linecap="round" class="TopLeft"></path><path d="M1072 73L576 -423" stroke-width="10" stroke="url(#SvgjsLinearGradient1116)" stroke-linecap="round" class="TopLeft"></path><path d="M567 929L1101 1463" stroke-width="8" stroke="url(#SvgjsLinearGradient1115)" stroke-linecap="round" class="BottomRight"></path><path d="M460 84L173 -203" stroke-width="10" stroke="url(#SvgjsLinearGradient1116)" stroke-linecap="round" class="TopLeft"></path><path d="M874 748L1294 1168" stroke-width="10" stroke="url(#SvgjsLinearGradient1116)" stroke-linecap="round" class="TopLeft"></path><path d="M1018 242L1712 936" stroke-width="10" stroke="url(#SvgjsLinearGradient1116)" stroke-linecap="round" class="TopLeft"></path><path d="M1260 585L907 232" stroke-width="8" stroke="url(#SvgjsLinearGradient1115)" stroke-linecap="round" class="BottomRight"></path><path d="M1185 881L1594 1290" stroke-width="8" stroke="url(#SvgjsLinearGradient1115)" stroke-linecap="round" class="BottomRight"></path><path d="M473 543L-294 -224" stroke-width="8" stroke="url(#SvgjsLinearGradient1116)" stroke-linecap="round" class="TopLeft"></path><path d="M448 152L743 447" stroke-width="6" stroke="url(#SvgjsLinearGradient1116)" stroke-linecap="round" class="TopLeft"></path><path d="M298 205L1055 962" stroke-width="8" stroke="url(#SvgjsLinearGradient1116)" stroke-linecap="round" class="TopLeft"></path><path d="M1019 239L628 -152" stroke-width="10" stroke="url(#SvgjsLinearGradient1115)" stroke-linecap="round" class="BottomRight"></path><path d="M373 297L-288 -364" stroke-width="6" stroke="url(#SvgjsLinearGradient1116)" stroke-linecap="round" class="TopLeft"></path><path d="M1220 368L1741 889" stroke-width="6" stroke="url(#SvgjsLinearGradient1116)" stroke-linecap="round" class="TopLeft"></path><path d="M551 993L-12 430" stroke-width="10" stroke="url(#SvgjsLinearGradient1116)" stroke-linecap="round" class="TopLeft"></path><path d="M438 684L804 1050" stroke-width="10" stroke="url(#SvgjsLinearGradient1116)" stroke-linecap="round" class="TopLeft"></path><path d="M1218 110L941 -167" stroke-width="8" stroke="url(#SvgjsLinearGradient1115)" stroke-linecap="round" class="BottomRight"></path><path d="M1152 27L678 -447" stroke-width="8" stroke="url(#SvgjsLinearGradient1115)" stroke-linecap="round" class="BottomRight"></path><path d="M658 690L1138 1170" stroke-width="6" stroke="url(#SvgjsLinearGradient1116)" stroke-linecap="round" class="TopLeft"></path><path d="M887 710L256 79" stroke-width="10" stroke="url(#SvgjsLinearGradient1116)" stroke-linecap="round" class="TopLeft"></path><path d="M550 989L105 544" stroke-width="6" stroke="url(#SvgjsLinearGradient1115)" stroke-linecap="round" class="BottomRight"></path><path d="M92 834L-267 475" stroke-width="6" stroke="url(#SvgjsLinearGradient1115)" stroke-linecap="round" class="BottomRight"></path><path d="M575 157L191 -227" stroke-width="8" stroke="url(#SvgjsLinearGradient1116)" stroke-linecap="round" class="TopLeft"></path><path d="M104 796L-521 171" stroke-width="8" stroke="url(#SvgjsLinearGradient1116)" stroke-linecap="round" class="TopLeft"></path><path d="M1259 124L533 -602" stroke-width="10" stroke="url(#SvgjsLinearGradient1116)" stroke-linecap="round" class="TopLeft"></path><path d="M532 32L1200 700" stroke-width="10" stroke="url(#SvgjsLinearGradient1115)" stroke-linecap="round" class="BottomRight"></path><path d="M268 986L-148 570" stroke-width="6" stroke="url(#SvgjsLinearGradient1115)" stroke-linecap="round" class="BottomRight"></path><path d="M955 516L293 -146" stroke-width="6" stroke="url(#SvgjsLinearGradient1116)" stroke-linecap="round" class="TopLeft"></path><path d="M1003 23L596 -384" stroke-width="8" stroke="url(#SvgjsLinearGradient1115)" stroke-linecap="round" class="BottomRight"></path><path d="M1142 551L1534 943" stroke-width="10" stroke="url(#SvgjsLinearGradient1116)" stroke-linecap="round" class="TopLeft"></path><path d="M66 197L-214 -83" stroke-width="8" stroke="url(#SvgjsLinearGradient1116)" stroke-linecap="round" class="TopLeft"></path><path d="M254 493L809 1048" stroke-width="10" stroke="url(#SvgjsLinearGradient1116)" stroke-linecap="round" class="TopLeft"></path><path d="M632 1014L916 1298" stroke-width="8" stroke="url(#SvgjsLinearGradient1116)" stroke-linecap="round" class="TopLeft"></path><path d="M663 243L1095 675" stroke-width="8" stroke="url(#SvgjsLinearGradient1115)" stroke-linecap="round" class="BottomRight"></path><path d="M437 616L695 874" stroke-width="6" stroke="url(#SvgjsLinearGradient1115)" stroke-linecap="round" class="BottomRight"></path><path d="M498 502L-97 -93" stroke-width="10" stroke="url(#SvgjsLinearGradient1116)" stroke-linecap="round" class="TopLeft"></path><path d="M879 647L226 -6" stroke-width="8" stroke="url(#SvgjsLinearGradient1115)" stroke-linecap="round" class="BottomRight"></path><path d="M987 794L221 28" stroke-width="8" stroke="url(#SvgjsLinearGradient1115)" stroke-linecap="round" class="BottomRight"></path><path d="M1059 190L1384 515" stroke-width="8" stroke="url(#SvgjsLinearGradient1115)" stroke-linecap="round" class="BottomRight"></path><path d="M1045 1020L555 530" stroke-width="8" stroke="url(#SvgjsLinearGradient1116)" stroke-linecap="round" class="TopLeft"></path><path d="M271 179L-280 -372" stroke-width="10" stroke="url(#SvgjsLinearGradient1115)" stroke-linecap="round" class="BottomRight"></path><path d="M737 869L1090 1222" stroke-width="10" stroke="url(#SvgjsLinearGradient1115)" stroke-linecap="round" class="BottomRight"></path><path d="M287 772L-253 232" stroke-width="8" stroke="url(#SvgjsLinearGradient1115)" stroke-linecap="round" class="BottomRight"></path></g><defs><mask id="SvgjsMask1114"><rect width="1440" height="1024" fill="#ffffff"></rect></mask><linearGradient x1="0%" y1="0%" x2="100%" y2="100%" id="SvgjsLinearGradient1115"><stop stop-color="rgba(84, 124, 167, 0)" offset="0"></stop><stop stop-color="rgba(84, 124, 167, 1)" offset="1"></stop></linearGradient><linearGradient x1="100%" y1="100%" x2="0%" y2="0%" id="SvgjsLinearGradient1116"><stop stop-color="rgba(84, 124, 167, 0)" offset="0"></stop><stop stop-color="rgba(84, 124, 167, 1)" offset="1"></stop></linearGradient></defs></svg>