<svg xmlns="http://www.w3.org/2000/svg" version="1.1" xmlns:xlink="http://www.w3.org/1999/xlink" xmlns:svgjs="http://svgjs.com/svgjs" width="1440" height="560" preserveAspectRatio="none" viewBox="0 0 1440 560"><g mask="url(&quot;#SvgjsMask1001&quot;)" fill="none"><rect width="1440" height="560" x="0" y="0" fill="rgba(255, 255, 255, 1)"></rect><path d="M735.51 587.44C844.05 541.29 797.39 204.21 1008.44 202.65 1219.49 201.09 1410.69 379.58 1554.3 381.85" stroke="rgba(51,121,194,0.58)" stroke-width="2"></path><path d="M476.56 654.48C598.59 611.68 549.48 252.2 799.33 250.25 1049.17 248.3 1278.79 405.93 1444.86 407.05" stroke="rgba(51,121,194,0.58)" stroke-width="2"></path><path d="M101.97 633.37C297.84 618.83 414.47 243.76 778.49 233.94 1142.5 224.12 1282.29 94.67 1455 93.94" stroke="rgba(51,121,194,0.58)" stroke-width="2"></path><path d="M536.77 659.67C691 646.82 798.4 333.86 1063.07 333.7 1327.74 333.54 1447.5 542.52 1589.37 546.5" stroke="rgba(51,121,194,0.58)" stroke-width="2"></path><path d="M832.58 670.8C946.6 620.33 899.3 261.32 1116.18 260.5 1333.05 259.68 1529.4 496.38 1683.37 501.3" stroke="rgba(51,121,194,0.58)" stroke-width="2"></path></g><defs><mask id="SvgjsMask1001"><rect width="1440" height="560" fill="#ffffff"></rect></mask></defs></svg>